<svg width="296" height="141" viewBox="0 0 296 141" fill="none" xmlns="http://www.w3.org/2000/svg">
  <rect x="18.5" y="15.5" width="259" height="110" rx="16.5" fill="#F8FAFC"/>
  <rect x="18.5" y="15.5" width="259" height="110" rx="16.5" stroke="#E2E8F0"/>
  <rect x="51.5" y="31.5" width="193" height="78" rx="12.5" fill="#FFFFFF" stroke="#CBD5E1"/>
  <rect x="65" y="44" width="52" height="52" rx="9" fill="#F1F5F9" stroke="#E2E8F0"/>
  <rect x="75" y="51" width="32" height="10" rx="5" fill="#036FE3"/>
  <rect x="75" y="66" width="32" height="10" rx="5" fill="#FFFFFF" stroke="#CBD5E1"/>
  <rect x="75" y="81" width="32" height="10" rx="5" fill="#FFFFFF" stroke="#CBD5E1"/>
  <path d="M126 70H149" stroke="#036FE3" stroke-width="2.4" stroke-linecap="round"/>
  <path d="M143 64L149 70L143 76" stroke="#036FE3" stroke-width="2.4" stroke-linecap="round" stroke-linejoin="round"/>
  <rect x="159" y="44" width="68" height="52" rx="9" fill="#F8FAFC" stroke="#CBD5E1"/>
  <rect x="171" y="54" width="44" height="10" rx="5" fill="#D6EAFF" stroke="#7AB8FF"/>
  <rect x="171" y="71" width="44" height="10" rx="5" fill="#FFFFFF" stroke="#CBD5E1"/>
  <rect x="181" y="87" width="24" height="4" rx="2" fill="#CBD5E1"/>
</svg>
